<?xml version="1.0" encoding="utf-8"?>
<!-- Generator: Adobe Illustrator 24.1.2, SVG Export Plug-In . SVG Version: 6.00 Build 0)  -->
<svg version="1.1" id="Laag_1" xmlns="http://www.w3.org/2000/svg" xmlns:xlink="http://www.w3.org/1999/xlink" x="0px" y="0px"
	 viewBox="0 0 28.35 28.35" style="enable-background:new 0 0 28.35 28.35;" xml:space="preserve">
<style type="text/css">
	.st0{fill:#B2B2B2;}
</style>
<path class="st0" d="M28.34,12.34c-0.32-2.57-1.34-4.93-2.85-6.89l-2.74,0.14l0.14-2.74C20.94,1.34,18.58,0.32,16.01,0l-1.84,2.03
	L12.34,0C9.76,0.32,7.4,1.34,5.45,2.85l0.14,2.74L2.85,5.45C1.34,7.41,0.33,9.77,0,12.34l2.03,1.83L0,16.01
	c0.32,2.57,1.34,4.93,2.85,6.89l2.73-0.14L5.45,25.5c1.95,1.51,4.31,2.52,6.88,2.85l1.85-2.04l1.84,2.04
	c2.57-0.32,4.93-1.34,6.88-2.85l-0.14-2.74l2.74,0.14c1.51-1.96,2.53-4.32,2.85-6.89l-2.03-1.84L28.34,12.34z M14.17,20.68
	c-3.59,0-6.5-2.91-6.5-6.5c0-3.6,2.91-6.51,6.5-6.51c3.6,0,6.51,2.91,6.51,6.51C20.68,17.77,17.77,20.68,14.17,20.68z"/>
</svg>
