<?xml version="1.0" encoding="utf-8"?>
<!-- Generator: Adobe Illustrator 24.1.2, SVG Export Plug-In . SVG Version: 6.00 Build 0)  -->
<svg version="1.1" id="Laag_1" xmlns="http://www.w3.org/2000/svg" xmlns:xlink="http://www.w3.org/1999/xlink" x="0px" y="0px"
	 viewBox="0 0 283.46 283.46" style="enable-background:new 0 0 283.46 283.46;" xml:space="preserve">
<style type="text/css">
	.st0{fill:#95C11F;}
	.st1{fill:#008D36;}
	.st2{fill:#006633;}
	.st3{fill:#7D4E24;}
	.st4{fill:#B17F4A;}
	.st5{fill:#432918;}
	.st6{fill:#936037;}
	.st7{fill:#B2B2B2;}
	.st8{fill:#DADADA;}
</style>
<g>
	<rect x="0" y="0" class="st0" width="283.46" height="283.46"/>
	<path class="st1" d="M237.99,283.43H37.82c0,0,17.36-53.31,39.49-64.55l135.32-1.64C212.63,217.24,224.04,222.7,237.99,283.43z"/>
	<path class="st2" d="M149.39,249.61c0,0-73.79-22.21-72.09-30.72c1.7-8.51,5.79-7.15,10.21-7.66c4.43-0.51,16.34,4.26,25.19,0
		c8.85-4.26,13.45,5.28,13.45,5.28l28.18,20.43c0,0,21.18-29.11,30.03-25.87c8.85,3.23,4.6,3.91,15.66,1.7
		c11.06-2.21,13.28,2.15,12.6,4.48S149.39,249.61,149.39,249.61"/>
	<path class="st3" d="M164.2,186.8c0,0-3.32,29.11,16.09,31.91c-2.21,4.9-6.46,12.66-14.3,19.91c-6.09,5.64-12.2,9-16.6,10.98
		c-4.22-1.69-9.15-4.42-14.59-7.95c-7.63-4.96-15.93-11.88-18.61-19.74c1.39-0.79,3.55-2.22,5.53-4.57
		c7.62-9.04,2.55-19.89,6.72-26.47C131.44,186.18,139.93,182.44,164.2,186.8z"/>
	<path class="st4" d="M193.04,105.87c-0.04,0.21-0.07,0.42-0.12,0.63c0.05-0.21,0.08-0.42,0.11-0.63H193.04z"/>
	<circle class="st5" cx="113.65" cy="70.12" r="18.38"/>
	<circle class="st5" cx="137.65" cy="51.74" r="18.38"/>
	<circle class="st5" cx="161.9" cy="68.84" r="18.38"/>
	<path class="st6" d="M195.71,135.97c-0.01,0.01-0.01,0.03-0.01,0.06c-0.34,3.44-0.85,5.9-0.98,6.51c-0.01,0.03-0.01,0.06-0.02,0.08
		c0,0.05-0.01,0.07-0.01,0.07c-1.4,4.94-3.05,9.52-4.89,13.76c-16.23,37.48-46.88,48.43-46.88,48.43
		c-26.74-14.02-40.54-33.38-47.65-49.25c-1.75-3.91-3.1-7.61-4.13-10.96c0,0,0-0.02-0.01-0.06c-0.05-0.56-0.49-4.88-0.57-10.51
		c-0.16-11.21,1.1-27.61,9.56-29.77c13.02-3.32,38.73-1.79,42.73,6.64c0,0,14.72-14.75,37.19-8.27
		C196.12,107.33,196.68,125.84,195.71,135.97z"/>
	<path class="st5" d="M88.05,130.6c-0.03-0.2-0.05-0.39-0.07-0.57C88.02,130.28,88.04,130.48,88.05,130.6z"/>
	<path class="st6" d="M95.27,155.63c0,0-1.28,1.81-3.15,1.81s-7.49-3.75-10.72-12.83c-3.24-9.08,1.53-17.3,3.91-18.32
		c1.75-0.75,2.41,1.98,2.64,3.48c0.02,0.1,0.03,0.18,0.03,0.26c0.03,0.19,0.05,0.35,0.06,0.47c0,0.03,0.01,0.07,0.01,0.1
		c0.01,0.07,0.01,0.11,0.01,0.11c0.39,3.05,1.23,7.93,3.07,13.9c0.01,0.04,0.01,0.06,0.01,0.06
		C92.17,148.02,93.52,151.72,95.27,155.63z"/>
	<path class="st5" d="M198.34,120.75c0,1.99-0.1,3.95-0.31,5.89c-0.11,1-0.24,1.99-0.4,2.97c-0.03,0.21-0.06,0.42-0.11,0.63
		c-0.04,0.27-0.08,0.55-0.14,0.82c-0.72,4.03-1.62,7.85-2.66,11.48c0.13-0.61,0.64-3.07,0.98-6.51c0-0.03,0-0.05,0.01-0.06
		c0.97-10.13,0.41-28.64-15.67-33.27c-22.47-6.48-37.19,8.27-37.19,8.27c-4-8.43-29.71-9.96-42.73-6.64
		c-8.46,2.16-9.72,18.56-9.56,29.77c0.08,5.63,0.52,9.95,0.57,10.51c-1.84-5.97-2.68-10.85-3.07-13.9c0,0,0-0.04-0.01-0.11
		c0-0.03-0.01-0.07-0.01-0.1c-0.01-0.12-0.03-0.28-0.06-0.47c0-0.08-0.01-0.16-0.03-0.26c-0.18-1.62-0.21-2.51-0.21-2.51h0.01
		c-0.26-2.14-0.39-4.31-0.39-6.51c0-30.64,24.84-55.49,55.49-55.49C173.49,65.26,198.34,90.11,198.34,120.75z"/>
	<path class="st6" d="M203.18,144.87c-3.23,9.08-8.85,12.83-10.72,12.83c-1.18,0-2.12-0.72-2.66-1.25
		c1.84-4.24,3.49-8.82,4.89-13.76c0,0,0.01-0.02,0.01-0.07c0.01-0.02,0.01-0.05,0.02-0.08c1.04-3.63,1.94-7.45,2.66-11.48
		c0.06-0.27,0.1-0.55,0.14-0.82c0.05-0.21,0.08-0.42,0.11-0.63c0.16-0.98,0.29-1.97,0.4-2.97c0.34-0.24,0.75-0.3,1.24-0.09
		C201.65,127.57,206.42,135.79,203.18,144.87z"/>
	<path class="st7" d="M126.63,245.15c-2.12,0-3.83,1.72-3.83,3.83c0,2.12,1.71,3.83,3.83,3.83c2.11,0,3.83-1.71,3.83-3.83
		C130.46,246.87,128.74,245.15,126.63,245.15z M126.63,251.37c-1.32,0-2.38-1.07-2.38-2.39c0-1.31,1.06-2.38,2.38-2.38
		c1.31,0,2.38,1.07,2.38,2.38C129.01,250.3,127.94,251.37,126.63,251.37z"/>
	<path class="st7" d="M169.69,245.15c-2.12,0-3.83,1.72-3.83,3.83c0,2.12,1.71,3.83,3.83,3.83c2.11,0,3.83-1.71,3.83-3.83
		C173.52,246.87,171.8,245.15,169.69,245.15z M169.69,251.37c-1.32,0-2.38-1.07-2.38-2.39c0-1.31,1.06-2.38,2.38-2.38
		c1.31,0,2.38,1.07,2.38,2.38C172.07,250.3,171,251.37,169.69,251.37z"/>
	<path class="st8" d="M127.72,283.43h-2.18v-32.41c0-0.6,0.49-1.09,1.09-1.09l0,0c0.6,0,1.09,0.49,1.09,1.09V283.43z"/>
	<path class="st8" d="M170.78,283.43h-2.18v-32.41c0-0.6,0.49-1.09,1.09-1.09l0,0c0.6,0,1.09,0.49,1.09,1.09V283.43z"/>
	<path class="st2" d="M211.14,283.43c0.37-7.01-0.62-18.4-4.81-36.83c0,0,9.96,17.04,10.22,36.83H211.14z"/>
	<path class="st2" d="M80.08,283.43c-0.37-7.01,0.62-18.4,4.81-36.83c0,0-9.96,17.04-10.22,36.83H80.08z"/>
</g>
</svg>
