<?xml version="1.0" encoding="utf-8"?>
<!-- Generator: Adobe Illustrator 24.1.2, SVG Export Plug-In . SVG Version: 6.00 Build 0)  -->
<svg version="1.1" id="Laag_1" xmlns="http://www.w3.org/2000/svg" xmlns:xlink="http://www.w3.org/1999/xlink" x="0px" y="0px"
	 viewBox="0 0 28.35 28.35" style="enable-background:new 0 0 28.35 28.35;" xml:space="preserve">
<style type="text/css">
	.st0{fill:#B2B2B2;}
</style>
<path class="st0" d="M14.17,0.26C6.35,0.26,0,6.6,0,14.42c0,5.53,3.16,10.32,7.78,12.65v-4.69c0-3.53,2.86-6.39,6.39-6.39
	c1.77,0,3.37,0.72,4.53,1.87c1.16,1.16,1.87,2.76,1.87,4.52v4.69c4.62-2.34,7.78-7.12,7.78-12.65C28.35,6.6,22,0.26,14.17,0.26z
	 M14.17,15.13c-2.84,0-5.14-2.3-5.14-5.15c0-2.84,2.3-5.14,5.14-5.14c2.85,0,5.15,2.3,5.15,5.14
	C19.32,12.83,17.02,15.13,14.17,15.13z"/>
</svg>
